<?xml version="1.0" encoding="UTF-8"?>
<svg id="Layer_1" data-name="Layer 1" xmlns="http://www.w3.org/2000/svg" viewBox="0 0 673.84 208.28">
  <defs>
    <style>
      .cls-1 {
        fill: #fbb042;
      }

      .cls-2 {
        fill: #f6b141;
        font-family: ArialMT, Arial;
        font-size: 48.99px;
      }
    </style>
  </defs>
  <text class="cls-2" transform="translate(353.48 192.37) scale(.88 1)"><tspan x="0" y="0">Pay it forward</tspan></text>
  <g>
    <path class="cls-1" d="m184.01,14c7.26.06,14.24,2.84,19.54,7.8.32-1.02.52-2.08.58-3.14.4-8.9-8.48-18.12-19.59-18.63-11.11-.51-20.61,7.92-20.96,16.72-.05,1.11.05,2.22.28,3.31,5.73-4.46,12.91-6.62,20.15-6.06Z"/>
    <path class="cls-1" d="m258.54,14c7.26.15,14.21,3.03,19.45,8.06.35-1.05.56-2.14.63-3.24.49-8.8-8.18-18.14-19.38-18.77-11.2-.63-20.68,7.64-21.17,16.42-.06,1.11.01,2.22.23,3.31,5.79-4.38,13.01-6.44,20.24-5.78Z"/>
    <path class="cls-1" d="m39.88,75.19c.23-2.66.51-5.4.79-8.27s.51-5.64.7-8.27l.56-6.99c.14-2.1.23-3.61.23-4.66.02-1.96-.49-3.88-1.49-5.57-1.35-1.76-3.53-2.68-5.73-2.42-3.85-.01-7.41,2.04-9.32,5.38-2.61,4.35-4.05,9.3-4.19,14.37-.16,1.68-.35,4.01-.58,6.99s-.49,6.03-.72,9.11c-.23,3.07-.47,5.82-.65,8.25s-.3,3.94-.3,4.5c.08.69-.11,1.38-.54,1.93-.63.37-1.37.54-2.1.47h-4.33c-2.04.06-4.07-.2-6.03-.77-1.41-.47-2.69-1.27-3.73-2.33-.93-1-1.59-2.22-1.91-3.54C.17,81.82,0,80.24,0,78.66c0-1.77.14-4.1.42-7.38.28-3.28.65-7.5,1.14-13.02.49-5.52,1.02-12.65,1.68-21.27s1.42-19.33,2.03-32.12c-.08-1.07.13-2.14.61-3.1.23-.26.89-.37,1.91-.37h4.66c2.04-.02,4.07.31,6.01.95,1.43.48,2.74,1.28,3.82,2.33.95.91,1.65,2.04,2.05,3.28.38,1.2.59,2.45.61,3.7,0,1.44-.16,4.12-.42,8.04-.26,3.91-.63,8.5-1.02,13.77,1.86-3.43,4.61-6.29,7.97-8.27,3.45-1.65,7.24-2.45,11.06-2.33,2.95-.05,5.9.31,8.76,1.07,2.34.64,4.47,1.91,6.15,3.66,1.75,1.9,3.01,4.21,3.66,6.71.87,3.34,1.28,6.78,1.21,10.23,0,1.28,0,3.47-.37,6.59s-.54,6.68-.89,10.67-.72,8.15-1.09,12.51c-.37,4.36-.65,8.32-.89,11.93,0,.89-.16,1.56-.23,2.03-.05.39-.19.75-.42,1.07-.23.27-.56.44-.91.49-.56.05-1.12.05-1.68,0h-3.84c-2.1.06-4.19-.18-6.22-.72-1.39-.34-2.67-1.04-3.7-2.03-.91-.91-1.55-2.06-1.86-3.31-.37-1.39-.57-2.82-.58-4.26v-2.33c0-.77.21-1.35.28-1.98Z"/>
    <path class="cls-1" d="m69.34,75.3c-.12-6.98,3.6-13.46,9.69-16.89,6.48-4.07,16.02-6.27,28.63-6.59,0-.89.14-1.63.19-2.21s0-1.35,0-2.21c.1-2.13-.4-4.24-1.44-6.1-.95-1.54-2.96-2.33-5.99-2.33-1.39-.06-2.79.19-4.08.72-1,.43-1.86,1.11-2.52,1.98-.68.92-1.21,1.94-1.56,3.03-.4,1.21-.75,2.52-1.07,3.96-.08.62-.49,1.15-1.07,1.37-.86.24-1.74.35-2.63.3-8.15,0-12.23-3.11-12.23-9.32,0-2.44.61-4.83,1.75-6.99,1.22-2.32,2.99-4.31,5.15-5.8,2.65-1.79,5.59-3.09,8.69-3.84,3.91-1.01,7.94-1.49,11.97-1.42,8.88,0,15.31,1.83,19.29,5.5,4.17,4.08,6.36,9.76,6.01,15.58,0,.86,0,2.45-.3,4.66s-.42,4.66-.7,7.17-.54,4.89-.72,7.13-.3,3.8-.3,4.66c-.13,1.49.25,2.99,1.07,4.24.65.79,1.5,1.4,2.47,1.75.76.29,1.54.53,2.33.72.62.05,1.09.57,1.07,1.19,0,1.82-.25,3.64-.72,5.4-.46,1.8-1.25,3.5-2.33,5.01-1.15,1.59-2.67,2.87-4.43,3.73-2.18,1.03-4.58,1.53-6.99,1.44-3.06.25-6.11-.68-8.5-2.61-2.04-2.09-3.38-4.77-3.82-7.66-2.02,2.89-4.56,5.37-7.5,7.31-3.6,2.22-7.79,3.31-12.02,3.12-2.29,0-4.56-.28-6.78-.84-1.99-.54-3.83-1.51-5.4-2.84-1.62-1.33-2.9-3.04-3.73-4.96-1-2.32-1.5-4.83-1.47-7.36Zm37.27-13.67c-2.04,0-4.08.17-6.1.49-1.83.28-3.62.78-5.33,1.49-1.45.6-2.74,1.52-3.77,2.7-.97,1.13-1.48,2.59-1.44,4.08-.16,1.5.51,2.96,1.75,3.82,1.13.72,2.44,1.1,3.77,1.09,1.3.02,2.6-.23,3.8-.75,1.32-.59,2.49-1.47,3.42-2.59,1.09-1.32,1.95-2.8,2.56-4.4.77-1.89,1.22-3.9,1.33-5.94h.02Z"/>
    <path class="cls-1" d="m182.75,22.96c-3.75-.15-7.48.65-10.83,2.33-3.14,1.83-5.63,4.59-7.13,7.9,0-2.46-1.07-4.8-2.93-6.41-2.67-2.01-5.99-2.97-9.32-2.7h-4.66c-1.05,0-1.68.12-1.91.37-.49.96-.7,2.03-.61,3.1-.16,1.51-.4,4.29-.68,8.27-.28,3.98-.61,8.57-1,13.72-.4,5.15-.84,10.55-1.26,16.3s-.84,10.95-1.21,15.86-.65,9.11-.89,12.62-.37,5.68-.37,6.48c-.02,1.63.16,3.26.54,4.84.32,1.33.99,2.55,1.93,3.54,1.02,1.08,2.29,1.88,3.7,2.33,1.97.57,4.01.83,6.06.77h4.31c.66.05,1.32-.11,1.89-.47.4-.56.62-1.24.61-1.93.33-3.66.56-6.55.72-8.62s.3-3.7.42-4.91.19-2.14.23-2.86,0-1.54.19-2.33.19-2.14.35-3.66.37-3.73.61-6.59c1.18,3,3.14,5.63,5.68,7.62,2.89,1.95,6.35,2.9,9.83,2.7,3.91.03,7.76-.9,11.23-2.7,3.55-1.84,6.63-4.48,8.99-7.71,2.72-3.74,4.75-7.94,5.99-12.39,1.52-5.42,2.25-11.03,2.17-16.65,0-9.99-1.91-17.28-5.71-21.92s-9.43-6.89-16.93-6.89Zm-3.4,47.31c-1.8,3.06-5.07,4.96-8.62,5.03-1.67.05-3.31-.46-4.66-1.44-1.32-1.01-2.36-2.33-3.03-3.84-.75-1.71-1.26-3.52-1.49-5.38-.29-2.02-.43-4.06-.42-6.1-.2-4.92.81-9.81,2.93-14.25,1.69-3.38,5.21-5.45,8.99-5.26,1.73-.08,3.43.38,4.89,1.3,1.28.89,2.31,2.08,3,3.47.76,1.57,1.26,3.25,1.49,4.98.28,1.92.42,3.86.42,5.8,0,7.06-1.19,12.34-3.52,15.7Z"/>
    <path class="cls-1" d="m272.03,29.91c-3.8-4.66-9.45-6.99-16.93-6.99-3.76-.16-7.49.65-10.85,2.33-3.14,1.83-5.63,4.59-7.13,7.9,0-2.46-1.07-4.8-2.93-6.41-2.67-2.02-5.98-2.98-9.32-2.7h-4.66c-1.02,0-1.68.12-1.91.37-.48.96-.68,2.03-.61,3.1-.16,1.51-.37,4.29-.65,8.27-.28,3.98-.63,8.57-1.02,13.72-.4,5.15-.82,10.55-1.26,16.3-.44,5.75-.84,10.95-1.19,15.86s-.65,9.11-.91,12.62-.35,5.68-.35,6.48c-.02,1.63.16,3.26.54,4.84.32,1.33.97,2.55,1.91,3.54,1.03,1.07,2.31,1.87,3.73,2.33,1.96.57,3.99.83,6.03.77h4.22c.72.08,1.44-.08,2.05-.47.4-.57.6-1.24.58-1.93.33-3.66.56-6.55.72-8.62s.3-3.7.42-4.91.21-2.14.23-2.86,0-1.54.19-2.33.21-2.14.37-3.66.35-3.73.58-6.59c1.17,3.01,3.11,5.65,5.64,7.66,2.92,2,6.42,2.97,9.95,2.77,3.88,0,7.7-.96,11.13-2.77,3.55-1.85,6.63-4.48,8.99-7.71,2.71-3.74,4.74-7.94,5.99-12.39,1.5-5.42,2.22-11.03,2.14-16.65,0-9.83-1.89-17.24-5.68-21.87Zm-19.33,40.36c-1.81,3.06-5.08,4.97-8.64,5.03-1.67.05-3.31-.46-4.66-1.44-1.28-1.02-2.29-2.34-2.93-3.84-.74-1.72-1.25-3.53-1.49-5.38-.28-2.02-.42-4.06-.42-6.1-.24-4.91.72-9.81,2.82-14.25,1.68-3.38,5.2-5.45,8.97-5.26,1.73-.08,3.45.37,4.91,1.3,1.28.89,2.31,2.08,3,3.47.75,1.58,1.25,3.26,1.49,4.98.28,1.92.42,3.86.42,5.8.05,7.06-1.16,12.34-3.47,15.7Z"/>
    <path class="cls-1" d="m462.27,49.8c-.16,2.33-.37,4.98-.61,7.78s-.49,5.61-.72,8.43-.47,5.61-.65,8.34-.4,5.1-.54,7.17-.3,3.8-.42,5.15-.19,2.07-.19,2.17c0,.68-.21,1.35-.61,1.91-.59.4-1.31.58-2.03.49h-4.33c-4.29,0-7.31-1.02-9.04-3.07-1.9-2.66-2.8-5.9-2.56-9.15,0-.47,0-1.68.16-3.59s.3-4.22.49-6.99.42-5.64.65-8.92c.23-3.28.49-6.55.72-9.81h-5.61c-.64.1-1.23-.34-1.33-.97-.02-.12-.02-.24,0-.35v-2.82c0-1.23.16-2.45.26-3.66.07-.99.21-1.97.42-2.93.16-.94.53-1.84,1.07-2.63.6-.83,1.4-1.49,2.33-1.91,1.29-.57,2.67-.88,4.08-.91l.47-4.77c.32-4.48,1.31-8.88,2.93-13.07,1.28-3.21,3.27-6.1,5.82-8.43,2.46-2.15,5.39-3.71,8.55-4.54,3.66-.95,7.44-1.39,11.23-1.3,3.45-.06,6.89.31,10.25,1.09,2.5.54,4.87,1.55,6.99,2.98,1.67,1.19,2.99,2.79,3.84,4.66.79,1.77,1.2,3.69,1.19,5.64.33,3.43-1.14,6.79-3.89,8.87-3.15,1.9-6.8,2.82-10.48,2.63-.83.04-1.65-.06-2.45-.3-.49-.27-.76-.82-.68-1.37.06-2.1-.17-4.2-.7-6.24-.49-1.51-1.79-2.33-3.96-2.33-1.49-.05-2.94.46-4.08,1.42-1.18,1.04-2.12,2.33-2.75,3.77-.76,1.7-1.31,3.5-1.63,5.33-.35,2-.65,4.03-.89,6.1h13.77c1.28,0,1.91.58,1.91,1.68l-.47,6.48c-.05,2.09-.74,4.11-1.98,5.8-1.16,1.55-3.54,2.33-7.13,2.33l-7.43-.14Z"/>
    <path class="cls-1" d="m485.38,76.49c-.11-6.98,3.61-13.46,9.69-16.89,6.48-4.07,16.02-6.27,28.63-6.59,0-.86.14-1.61.19-2.21s0-1.33,0-2.21c.11-2.13-.39-4.24-1.42-6.1-1.47-1.76-3.74-2.64-6.01-2.33-1.39-.04-2.77.2-4.05.72-.99.44-1.86,1.12-2.52,1.98-.69.92-1.22,1.95-1.56,3.05-.43,1.3-.79,2.62-1.07,3.96-.09.62-.51,1.15-1.09,1.37-.86.23-1.74.34-2.63.3-8.12,0-12.19-3.11-12.2-9.32.01-2.43.6-4.83,1.72-6.99,1.24-2.31,3-4.29,5.15-5.8,2.63-1.76,5.55-3.04,8.62-3.8,3.91-1.02,7.93-1.5,11.97-1.44,8.87,0,15.28,1.84,19.29,5.52,4.15,4.08,6.33,9.75,5.99,15.56,0,.89,0,2.47-.3,4.66s-.44,4.66-.72,7.2-.51,4.89-.72,7.13-.28,3.8-.28,4.66c-.14,1.5.24,3.01,1.07,4.26.64.79,1.49,1.38,2.45,1.72.81.29,1.63.53,2.47.72.62.05,1.1.58,1.07,1.21,0,1.82-.25,3.63-.72,5.38-.46,1.81-1.25,3.51-2.33,5.03-1.15,1.58-2.67,2.85-4.43,3.7-2.18,1.03-4.58,1.53-6.99,1.44-3.12.24-6.21-.75-8.62-2.75-2.04-2.1-3.38-4.77-3.84-7.66-1.98,2.89-4.5,5.37-7.41,7.31-3.61,2.22-7.81,3.31-12.04,3.12-2.28.02-4.55-.27-6.75-.84-2.02-.5-3.9-1.44-5.52-2.75-1.58-1.35-2.83-3.05-3.63-4.96-1-2.33-1.49-4.85-1.42-7.38Zm37.27-13.65c-2.05,0-4.1.16-6.13.49-1.83.27-3.61.77-5.31,1.49-1.46.61-2.76,1.55-3.8,2.75-.96,1.13-1.48,2.57-1.44,4.05-.16,1.5.51,2.98,1.75,3.84,1.13.71,2.44,1.08,3.77,1.07,1.32-.01,2.62-.3,3.82-.84,1.32-.59,2.49-1.46,3.42-2.56,1.06-1.29,1.92-2.72,2.56-4.26.77-1.9,1.22-3.92,1.33-5.96l.02-.07Z"/>
    <path class="cls-1" d="m586.56,76.49c2.06.05,4.11-.27,6.06-.95,1.57-.56,3.08-1.28,4.5-2.17,1.26-.79,2.33-1.51,3.24-2.14.66-.55,1.47-.88,2.33-.95,1.82,0,2.75,1.19,2.75,3.59-.03.79-.16,1.57-.37,2.33-.25,1.06-.57,2.1-.95,3.12-.4,1.07-.82,2.1-1.26,3.05-.33.77-.75,1.5-1.26,2.17-.4.4-1.09,1.02-2.1,1.91-1.23,1.03-2.57,1.91-4.01,2.63-1.88.96-3.84,1.74-5.87,2.33-2.41.7-4.92,1.05-7.43,1.02-3.15-.03-6.29-.49-9.32-1.37-3.26-.95-6.26-2.6-8.8-4.84-2.85-2.58-5.09-5.76-6.55-9.32-1.84-4.62-2.72-9.56-2.56-14.53.02-2.38.16-4.76.42-7.13.31-2.8.89-5.57,1.72-8.27.91-2.9,2.1-5.71,3.54-8.39,1.51-2.8,3.53-5.29,5.94-7.36,2.64-2.26,5.66-4.02,8.92-5.22,3.98-1.4,8.18-2.07,12.39-1.98,3.42-.07,6.83.4,10.11,1.37,2.55.78,4.92,2.04,6.99,3.73,1.78,1.48,3.19,3.34,4.12,5.45.94,2.11,1.42,4.4,1.4,6.71.29,3.65-1.24,7.2-4.08,9.5-3.4,2.25-7.44,3.33-11.51,3.07-.83.04-1.65-.06-2.45-.3-.47-.29-.73-.83-.65-1.37,0-1.93-.05-3.65-.14-5.17-.03-1.3-.25-2.59-.65-3.82-.29-.92-.85-1.73-1.61-2.33-.92-.62-2.02-.91-3.12-.84-2.22-.12-4.39.73-5.94,2.33-1.51,1.67-2.65,3.65-3.33,5.8-.77,2.26-1.25,4.61-1.44,6.99-.21,2.33-.3,4.4-.3,5.99,0,5.68.91,9.62,2.7,11.86,2.14,2.46,5.32,3.77,8.57,3.52Z"/>
    <path class="cls-1" d="m644.88,92.42c-3.54,0-7.06-.45-10.48-1.33-3.4-.87-6.58-2.46-9.32-4.66-2.88-2.32-5.19-5.27-6.75-8.62-1.9-4.25-2.8-8.88-2.63-13.53.03-2.41.18-4.81.47-7.2.36-2.92.98-5.81,1.86-8.62.98-3.02,2.28-5.94,3.87-8.69,1.68-2.96,3.84-5.61,6.41-7.85,2.83-2.42,6.08-4.32,9.57-5.61,4.3-1.54,8.85-2.27,13.42-2.17,3.56-.08,7.12.41,10.53,1.44,2.58.78,4.97,2.1,6.99,3.89,1.72,1.56,3.03,3.51,3.84,5.68.81,2.24,1.21,4.61,1.19,6.99.1,3.25-.66,6.46-2.21,9.32-1.44,2.51-3.39,4.69-5.73,6.41-2.4,1.72-5.05,3.07-7.85,4.01-2.78.97-5.62,1.75-8.5,2.33-2.55.49-5.14.81-7.73.95-2.33,0-4.17.19-5.45.19,0,1.52.23,3.03.65,4.5.41,1.41,1.08,2.73,1.98,3.89.94,1.16,2.13,2.1,3.47,2.75,1.65.77,3.47,1.13,5.29,1.07,1.67.09,3.34-.25,4.84-1,1.06-.61,2.02-1.4,2.82-2.33.7-.84,1.33-1.61,1.84-2.33.49-.66,1.27-1.04,2.1-1.02.71.05,1.41.15,2.1.3,1.09.24,2.13.67,3.07,1.26,1.07.7,2.01,1.59,2.75,2.63.84,1.29,1.25,2.8,1.19,4.33.04,2.19-.72,4.32-2.14,5.99-1.54,1.75-3.45,3.13-5.59,4.05-2.41,1.11-4.97,1.9-7.59,2.33-2.72.46-5.48.68-8.25.65Zm2.33-52.34c-1.63-.04-3.22.49-4.5,1.49-1.27,1.05-2.32,2.33-3.1,3.77-.86,1.58-1.51,3.28-1.93,5.03-.42,1.84-.77,3.61-1,5.29,4.14.08,8.25-.78,12.02-2.52,2.79-1.14,4.63-3.84,4.66-6.85.01-1.56-.51-3.09-1.49-4.31-1.16-1.37-2.92-2.08-4.71-1.91h.05Z"/>
    <path class="cls-1" d="m313,91.23c-3.54,0-7.06-.45-10.48-1.33-3.4-.88-6.57-2.47-9.32-4.66-2.85-2.3-5.14-5.22-6.71-8.52-1.89-4.25-2.79-8.88-2.63-13.53-.04-2.43.06-4.85.3-7.27.35-2.92.96-5.81,1.84-8.62.98-3.06,2.26-6.01,3.84-8.8,1.67-2.96,3.84-5.62,6.41-7.85,2.84-2.43,6.09-4.34,9.6-5.64,4.3-1.52,8.84-2.24,13.39-2.14,3.57-.09,7.13.39,10.55,1.42,2.58.79,4.97,2.12,6.99,3.91,1.71,1.57,3.02,3.51,3.84,5.68.81,2.24,1.21,4.61,1.19,6.99.06,3.26-.74,6.47-2.33,9.32-1.45,2.51-3.41,4.69-5.75,6.41-2.33,1.71-4.9,3.06-7.64,3.98-2.78.96-5.62,1.74-8.5,2.33-2.55.49-5.12.81-7.71.95-2.33.12-4.19.16-5.45.16,0,1.52.22,3.04.65,4.5.4,1.41,1.07,2.73,1.98,3.89.93,1.17,2.12,2.12,3.47,2.77,1.65.75,3.45,1.12,5.26,1.07,1.68.09,3.35-.27,4.84-1.02,1.06-.61,2.02-1.4,2.82-2.33.72-.84,1.35-1.58,1.86-2.33.49-.67,1.27-1.05,2.1-1.02.71.04,1.41.14,2.1.3,1.08.25,2.11.67,3.05,1.26,1.08.68,2.02,1.58,2.75,2.63.84,1.27,1.27,2.78,1.21,4.31.04,2.19-.73,4.33-2.17,5.99-1.53,1.75-3.43,3.15-5.57,4.08-2.43,1.09-4.98,1.87-7.59,2.33-2.71.49-5.45.75-8.2.79Zm2.33-52.34c-1.63-.04-3.22.49-4.5,1.49-1.3,1.07-2.38,2.4-3.17,3.89-.86,1.58-1.5,3.28-1.91,5.03-.44,1.84-.79,3.59-1.02,5.26,4.16.07,8.29-.83,12.04-2.63,2.79-1.13,4.62-3.82,4.66-6.82,0-1.56-.53-3.08-1.49-4.31-1.15-1.36-2.89-2.07-4.66-1.91h.05Z"/>
    <path class="cls-1" d="m408.17,29.32c-.6-1.22-1.51-2.26-2.63-3.03-1.17-.79-2.5-1.32-3.89-1.56-1.54-.28-3.1-.42-4.66-.42h-4.29c-.62,0-1.23.19-1.75.54-.57.45-.9,1.14-.89,1.86l-1.91,22.34c-.27,5.42-1.7,10.72-4.19,15.54-1.62,3.51-5.1,5.78-8.97,5.85-2.04.04-4.01-.76-5.45-2.21-1.6-1.87-2.4-4.3-2.21-6.75,0-1.19.14-2.89.37-5.08s.49-4.54.77-6.99.54-5.03.77-7.55c.23-2.16.36-4.33.37-6.5.01-1.57-.15-3.13-.49-4.66-.27-1.3-.91-2.5-1.84-3.45-1.06-1.01-2.36-1.73-3.77-2.1-2.02-.54-4.11-.78-6.2-.72h-3.84c-2.07,0-3.17,1.23-3.33,3.7-.33,3.82-.63,7.57-.91,11.23-.28,3.66-.54,6.99-.77,10.23s-.44,5.96-.61,8.48-.23,4.52-.23,6.03c-.07,3.52.41,7.02,1.44,10.39.8,2.61,2.19,5,4.05,6.99,1.74,1.79,3.89,3.13,6.27,3.89,2.61.82,5.34,1.22,8.08,1.19,1.58,0,3.16-.13,4.73-.35,1.73-.26,3.42-.76,5.01-1.49,1.75-.87,3.36-2,4.77-3.35,1.69-1.57,3.13-3.4,4.24-5.43,0,2.52-.17,5.03-.49,7.52-.28,2.46-.92,4.87-1.91,7.15-5.15,9.6-19.77,24.92-50.15,40.2-38.5,19.36-86.44,30.44-131.48,30.44s-86.46-6.68-121.82-19.89c-36.36-13.63-53.87-29.37-59.7-35.52-4.23-4.29-11.13-4.34-15.42-.11-4.17,4.11-4.35,10.79-.4,15.11,14.53,15.3,39.29,30.28,67.97,40.92,37.8,14.14,81.36,21.29,129.43,21.29,48.99.04,97.33-11.18,141.29-32.8,36.29-18.24,58.51-43.63,61.72-63.31h0c.01-.06.01-.12,0-.19.12-.7.21-1.37.26-2.05.95-8.04,1.21-15.28,1.65-20.96.47-6.24.84-11.44,1.12-15.54s.49-7.24.61-9.43.19-3.68.19-4.47c.08-1.71-.24-3.42-.93-4.98Z"/>
  </g>
</svg>